<svg width="626" height="157" viewBox="0 0 626 157" fill="none" xmlns="http://www.w3.org/2000/svg">
<path d="M182.444 98.0018C177.034 98.0018 171.792 97.2338 166.716 95.6977C161.707 94.1616 157.733 92.1246 154.794 89.5867L159.302 79.4685C162.174 81.7392 165.681 83.6093 169.821 85.0786C174.029 86.4811 178.237 87.1824 182.444 87.1824C187.653 87.1824 191.527 86.3475 194.065 84.6779C196.67 83.0082 197.972 80.8042 197.972 78.066C197.972 76.0624 197.237 74.4261 195.768 73.1572C194.365 71.8214 192.562 70.7862 190.358 70.0516C188.154 69.3169 185.149 68.4821 181.342 67.5471C175.999 66.2781 171.658 65.0092 168.319 63.7402C165.046 62.4713 162.208 60.5011 159.803 57.8296C157.466 55.0914 156.297 51.4181 156.297 46.8098C156.297 42.9362 157.332 39.4299 159.403 36.2909C161.54 33.0852 164.712 30.5473 168.92 28.6772C173.194 26.8072 178.403 25.8722 184.548 25.8722C188.822 25.8722 193.03 26.4065 197.171 27.4751C201.311 28.5437 204.884 30.0798 207.89 32.0834L203.782 42.2015C200.71 40.3983 197.504 39.0292 194.165 38.0942C190.826 37.1591 187.587 36.6916 184.448 36.6916C179.305 36.6916 175.465 37.5599 172.927 39.2963C170.456 41.0328 169.22 43.3369 169.22 46.2087C169.22 48.2123 169.922 49.8486 171.324 51.1176C172.793 52.3865 174.63 53.3883 176.834 54.123C179.038 54.8576 182.043 55.6924 185.85 56.6275C191.06 57.8296 195.334 59.0986 198.673 60.4343C202.013 61.7032 204.851 63.6735 207.189 66.3449C209.593 69.0164 210.795 72.6229 210.795 77.1644C210.795 81.038 209.726 84.5443 207.589 87.6833C205.519 90.8222 202.346 93.3267 198.072 95.1968C193.798 97.0668 188.588 98.0018 182.444 98.0018ZM247.852 67.6473L236.732 79.0678V97H223.709V26.874H236.732V62.8386L271.395 26.874H286.021L256.568 58.2303L287.824 97H272.597L247.852 67.6473ZM321.956 72.2555V97H308.933V72.4559L281.384 26.874H295.309L315.845 61.0354L336.583 26.874H349.406L321.956 72.2555Z" fill="#1E7FC6"/>
<path d="M407.624 60.5345C411.497 61.8034 414.569 63.9406 416.84 66.946C419.111 69.8846 420.246 73.5579 420.246 77.9658C420.246 84.0434 417.909 88.7518 413.234 92.0912C408.559 95.3637 401.746 97 392.797 97H357.934V26.874H390.793C399.075 26.874 405.453 28.5103 409.928 31.7828C414.403 34.9886 416.64 39.4299 416.64 45.1068C416.64 48.5797 415.838 51.6519 414.236 54.3233C412.633 56.9948 410.429 59.0652 407.624 60.5345ZM370.958 37.0924V56.4271H389.391C393.932 56.4271 397.405 55.6257 399.81 54.0228C402.281 52.3531 403.516 49.9488 403.516 46.8098C403.516 43.6041 402.281 41.1997 399.81 39.5969C397.405 37.9272 393.932 37.0924 389.391 37.0924H370.958ZM391.996 86.7816C402.08 86.7816 407.123 83.4089 407.123 76.6635C407.123 69.918 402.08 66.5453 391.996 66.5453H370.958V86.7816H391.996ZM486.74 86.0804V97H434.146V26.874H485.338V37.7936H447.169V56.0264H481.03V66.7456H447.169V86.0804H486.74ZM546.74 80.7708H511.677L504.765 97H491.34L522.897 26.874H535.72L567.377 97H553.753L546.74 80.7708ZM542.432 70.5525L529.209 39.8974L516.085 70.5525H542.432ZM586.999 37.8938H563.757V26.874H623.264V37.8938H600.022V97H586.999V37.8938Z" fill="#565656"/>
<path d="M164.704 149.745C162.763 149.745 161.008 149.316 159.44 148.457C157.891 147.598 156.668 146.413 155.772 144.901C154.895 143.37 154.456 141.662 154.456 139.777C154.456 137.892 154.895 136.193 155.772 134.681C156.668 133.15 157.9 131.956 159.468 131.097C161.036 130.238 162.791 129.809 164.732 129.809C166.188 129.809 167.532 130.052 168.764 130.537C169.996 131.022 171.041 131.732 171.9 132.665L170.584 133.981C169.053 132.432 167.121 131.657 164.788 131.657C163.239 131.657 161.829 132.012 160.56 132.721C159.291 133.43 158.292 134.401 157.564 135.633C156.855 136.865 156.5 138.246 156.5 139.777C156.5 141.308 156.855 142.689 157.564 143.921C158.292 145.153 159.291 146.124 160.56 146.833C161.829 147.542 163.239 147.897 164.788 147.897C167.14 147.897 169.072 147.113 170.584 145.545L171.9 146.861C171.041 147.794 169.987 148.513 168.736 149.017C167.504 149.502 166.16 149.745 164.704 149.745ZM184.475 149.745C182.534 149.745 180.77 149.316 179.183 148.457C177.615 147.58 176.383 146.385 175.487 144.873C174.61 143.361 174.171 141.662 174.171 139.777C174.171 137.892 174.61 136.193 175.487 134.681C176.383 133.169 177.615 131.984 179.183 131.125C180.77 130.248 182.534 129.809 184.475 129.809C186.416 129.809 188.162 130.238 189.711 131.097C191.279 131.956 192.511 133.15 193.407 134.681C194.303 136.193 194.751 137.892 194.751 139.777C194.751 141.662 194.303 143.37 193.407 144.901C192.511 146.413 191.279 147.598 189.711 148.457C188.162 149.316 186.416 149.745 184.475 149.745ZM184.475 147.897C186.024 147.897 187.424 147.552 188.675 146.861C189.926 146.152 190.906 145.181 191.615 143.949C192.324 142.698 192.679 141.308 192.679 139.777C192.679 138.246 192.324 136.865 191.615 135.633C190.906 134.382 189.926 133.412 188.675 132.721C187.424 132.012 186.024 131.657 184.475 131.657C182.926 131.657 181.516 132.012 180.247 132.721C178.996 133.412 178.007 134.382 177.279 135.633C176.57 136.865 176.215 138.246 176.215 139.777C176.215 141.308 176.57 142.698 177.279 143.949C178.007 145.181 178.996 146.152 180.247 146.861C181.516 147.552 182.926 147.897 184.475 147.897ZM215.775 129.977V149.577H214.067L201.467 133.673V149.577H199.395V129.977H201.103L213.731 145.881V129.977H215.775ZM227.576 149.745C226.12 149.745 224.72 149.512 223.376 149.045C222.051 148.578 221.024 147.962 220.296 147.197L221.108 145.601C221.818 146.31 222.76 146.889 223.936 147.337C225.112 147.766 226.326 147.981 227.576 147.981C229.331 147.981 230.647 147.664 231.524 147.029C232.402 146.376 232.84 145.536 232.84 144.509C232.84 143.725 232.598 143.1 232.112 142.633C231.646 142.166 231.067 141.812 230.376 141.569C229.686 141.308 228.724 141.028 227.492 140.729C226.018 140.356 224.842 140.001 223.964 139.665C223.087 139.31 222.331 138.778 221.696 138.069C221.08 137.36 220.772 136.398 220.772 135.185C220.772 134.196 221.034 133.3 221.556 132.497C222.079 131.676 222.882 131.022 223.964 130.537C225.047 130.052 226.391 129.809 227.996 129.809C229.116 129.809 230.208 129.968 231.272 130.285C232.355 130.584 233.288 131.004 234.072 131.545L233.372 133.197C232.551 132.656 231.674 132.254 230.74 131.993C229.807 131.713 228.892 131.573 227.996 131.573C226.279 131.573 224.982 131.909 224.104 132.581C223.246 133.234 222.816 134.084 222.816 135.129C222.816 135.913 223.05 136.548 223.516 137.033C224.002 137.5 224.599 137.864 225.308 138.125C226.036 138.368 227.007 138.638 228.22 138.937C229.658 139.292 230.815 139.646 231.692 140.001C232.588 140.337 233.344 140.86 233.96 141.569C234.576 142.26 234.884 143.202 234.884 144.397C234.884 145.386 234.614 146.292 234.072 147.113C233.55 147.916 232.738 148.56 231.636 149.045C230.535 149.512 229.182 149.745 227.576 149.745ZM247.295 149.745C244.756 149.745 242.778 149.017 241.359 147.561C239.94 146.105 239.231 143.986 239.231 141.205V129.977H241.303V141.121C241.303 143.398 241.816 145.097 242.843 146.217C243.87 147.337 245.354 147.897 247.295 147.897C249.255 147.897 250.748 147.337 251.775 146.217C252.802 145.097 253.315 143.398 253.315 141.121V129.977H255.331V141.205C255.331 143.986 254.622 146.105 253.203 147.561C251.803 149.017 249.834 149.745 247.295 149.745ZM261.575 129.977H263.647V147.785H274.623V149.577H261.575V129.977ZM280.039 131.769H273.151V129.977H288.999V131.769H282.111V149.577H280.039V131.769ZM303.617 144.341H292.697L290.345 149.577H288.189L297.149 129.977H299.193L308.153 149.577H305.969L303.617 144.341ZM302.861 142.661L298.157 132.133L293.453 142.661H302.861ZM327.775 129.977V149.577H326.067L313.467 133.673V149.577H311.395V129.977H313.103L325.731 145.881V129.977H327.775ZM342.684 149.745C340.743 149.745 338.988 149.316 337.42 148.457C335.871 147.598 334.648 146.413 333.752 144.901C332.875 143.37 332.436 141.662 332.436 139.777C332.436 137.892 332.875 136.193 333.752 134.681C334.648 133.15 335.88 131.956 337.448 131.097C339.016 130.238 340.771 129.809 342.712 129.809C344.168 129.809 345.512 130.052 346.744 130.537C347.976 131.022 349.022 131.732 349.88 132.665L348.564 133.981C347.034 132.432 345.102 131.657 342.768 131.657C341.219 131.657 339.81 132.012 338.54 132.721C337.271 133.43 336.272 134.401 335.544 135.633C334.835 136.865 334.48 138.246 334.48 139.777C334.48 141.308 334.835 142.689 335.544 143.921C336.272 145.153 337.271 146.124 338.54 146.833C339.81 147.542 341.219 147.897 342.768 147.897C345.12 147.897 347.052 147.113 348.564 145.545L349.88 146.861C349.022 147.794 347.967 148.513 346.716 149.017C345.484 149.502 344.14 149.745 342.684 149.745ZM360.607 142.801V149.577H358.563V142.801L350.723 129.977H352.935L359.655 140.981L366.375 129.977H368.447L360.607 142.801ZM386.325 129.977C388.826 129.977 390.786 130.574 392.205 131.769C393.624 132.964 394.333 134.606 394.333 136.697C394.333 138.788 393.624 140.43 392.205 141.625C390.786 142.801 388.826 143.389 386.325 143.389H381.061V149.577H378.989V129.977H386.325ZM386.269 141.569C388.21 141.569 389.694 141.149 390.721 140.309C391.748 139.45 392.261 138.246 392.261 136.697C392.261 135.11 391.748 133.897 390.721 133.057C389.694 132.198 388.21 131.769 386.269 131.769H381.061V141.569H386.269ZM412.197 149.577L407.717 143.277C407.213 143.333 406.69 143.361 406.149 143.361H400.885V149.577H398.813V129.977H406.149C408.65 129.977 410.61 130.574 412.029 131.769C413.448 132.964 414.157 134.606 414.157 136.697C414.157 138.228 413.765 139.525 412.981 140.589C412.216 141.634 411.114 142.39 409.677 142.857L414.465 149.577H412.197ZM406.093 141.597C408.034 141.597 409.518 141.168 410.545 140.309C411.572 139.45 412.085 138.246 412.085 136.697C412.085 135.11 411.572 133.897 410.545 133.057C409.518 132.198 408.034 131.769 406.093 131.769H400.885V141.597H406.093ZM419.047 129.977H421.119V149.577H419.047V129.977ZM443.574 129.977L434.894 149.577H432.85L424.17 129.977H426.41L433.914 147.001L441.474 129.977H443.574ZM458.109 144.341H447.189L444.837 149.577H442.681L451.641 129.977H453.685L462.645 149.577H460.461L458.109 144.341ZM457.353 142.661L452.649 132.133L447.945 142.661H457.353ZM468.711 131.769H461.823V129.977H477.671V131.769H470.783V149.577H468.711V131.769ZM494.841 147.785V149.577H480.981V129.977H494.421V131.769H483.053V138.741H493.189V140.505H483.053V147.785H494.841ZM507.04 129.977H509.112V147.785H520.088V149.577H507.04V129.977ZM523.528 129.977H525.6V149.577H523.528V129.977ZM552.333 129.977V149.577H550.345V133.897L542.645 147.085H541.665L533.965 133.981V149.577H531.977V129.977H533.685L542.197 144.509L550.625 129.977H552.333ZM558.719 129.977H560.791V149.577H558.719V129.977ZM570.977 131.769H564.089V129.977H579.937V131.769H573.049V149.577H570.977V131.769ZM597.107 147.785V149.577H583.247V129.977H596.687V131.769H585.319V138.741H595.455V140.505H585.319V147.785H597.107ZM601.977 129.977H609.957C612.029 129.977 613.858 130.397 615.445 131.237C617.032 132.058 618.264 133.216 619.141 134.709C620.018 136.184 620.457 137.873 620.457 139.777C620.457 141.681 620.018 143.38 619.141 144.873C618.264 146.348 617.032 147.505 615.445 148.345C613.858 149.166 612.029 149.577 609.957 149.577H601.977V129.977ZM609.845 147.785C611.562 147.785 613.065 147.449 614.353 146.777C615.641 146.086 616.64 145.144 617.349 143.949C618.058 142.736 618.413 141.345 618.413 139.777C618.413 138.209 618.058 136.828 617.349 135.633C616.64 134.42 615.641 133.477 614.353 132.805C613.065 132.114 611.562 131.769 609.845 131.769H604.049V147.785H609.845Z" fill="#565656"/>
<path d="M43.36 144.137L88.06 99.437C89.82 97.677 90.7 95.387 90.7 93.107L90.68 93.087C90.68 88.097 86.66 84.097 81.74 84.097L81.72 84.117C79.41 84.117 77.11 84.987 75.37 86.727L60.51 101.577C44.26 117.827 15.91 106.577 15.9 83.077H15.88C15.88 76.377 18.43 69.667 23.52 64.577L54.43 33.667C55.7 32.387 56.07 30.577 55.38 28.917C54.69 27.247 53.15 26.227 51.35 26.227H30.55C13.73 26.227 0.0100098 39.947 0.0100098 56.767V119.407C0.0100098 135.227 12.15 148.307 27.6 149.807C33.63 150.377 39.07 148.427 43.36 144.137Z" fill="#1E7FC6"/>
<path d="M93.18 149.937C110 149.937 123.72 136.217 123.72 119.397V56.757C123.72 40.937 111.58 27.857 96.13 26.357C90.09 25.777 84.65 27.727 80.36 32.017L35.66 76.717C33.92 78.457 33.05 80.767 33.05 83.067L33.03 83.087C33.03 91.067 42.78 95.007 48.37 89.417L63.21 74.577C68.3 69.487 75.01 66.937 81.71 66.937V66.957C96.24 66.967 107.85 78.607 107.85 93.067H107.83C107.83 99.787 105.29 106.497 100.21 111.567L69.3 142.477C68.03 143.747 67.66 145.567 68.35 147.227C69.04 148.897 70.58 149.917 72.38 149.917L93.18 149.937Z" fill="#565656"/>
</svg>
